<?xml version="1.0" encoding="UTF-8" standalone="no"?><!DOCTYPE svg PUBLIC "-//W3C//DTD SVG 1.1//EN" "http://www.w3.org/Graphics/SVG/1.1/DTD/svg11.dtd"><svg width="100%" height="100%" viewBox="0 0 504 433" version="1.1" xmlns="http://www.w3.org/2000/svg" xmlns:xlink="http://www.w3.org/1999/xlink" xml:space="preserve" xmlns:serif="http://www.serif.com/" style="fill-rule:evenodd;clip-rule:evenodd;stroke-linecap:round;stroke-linejoin:round;stroke-miterlimit:1.5;"><g id="brandmark"><g id="pictoral-mark" serif:id="pictoral mark"><g id="code-brackets" serif:id="code brackets"><path d="M44.8,264.641c-8.889,-0 -16.489,-3.156 -22.8,-9.467c-6.311,-6.311 -9.467,-13.911 -9.467,-22.8l0,-43.467l-12.533,-7.733l0,-25.6l12.533,-6.667l0,-43.733c0,-9.067 3.156,-16.755 9.467,-23.067c6.311,-6.311 13.911,-9.466 22.8,-9.466l7.733,-0l0,22.133l-7.733,0c-2.844,0 -5.289,1.022 -7.333,3.067c-2.045,2.044 -3.067,4.489 -3.067,7.333l0,45.6l-22.4,17.867l22.4,18.4l0,45.333c0,2.845 1.022,5.289 3.067,7.333c2.044,2.045 4.489,3.067 7.333,3.067l7.733,0l0,21.867l-7.733,-0Z" style="fill-rule:nonzero;"/><path d="M454.667,72.978c8.889,0 16.489,3.156 22.8,9.467c6.311,6.311 9.466,13.911 9.466,22.8l0,43.467l12.534,7.733l-0,25.6l-12.534,6.667l0,43.733c0,9.067 -3.155,16.756 -9.466,23.067c-6.311,6.311 -13.911,9.466 -22.8,9.466l-7.734,0l0,-22.133l7.734,0c2.844,0 5.289,-1.022 7.333,-3.067c2.044,-2.044 3.067,-4.488 3.067,-7.333l-0,-45.6l22.4,-17.867l-22.4,-18.4l-0,-45.333c-0,-2.844 -1.023,-5.289 -3.067,-7.333c-2.044,-2.045 -4.489,-3.067 -7.333,-3.067l-7.734,0l0,-21.867l7.734,0Z" style="fill-rule:nonzero;"/></g><g id="code-monkey" serif:id="code monkey"><g id="face"><path id="outline" d="M250.624,42.219c75.031,-4.195 139.353,53.315 143.548,128.346c4.194,75.032 -53.316,139.353 -128.347,143.548c-75.031,4.195 -139.352,-53.315 -143.547,-128.346c-4.195,-75.031 53.315,-139.353 128.346,-143.548Zm-5.793,91.482c13.894,-27.275 44.098,-42.027 72.566,-33.611c32.414,9.583 50.383,45.595 40.102,80.369c-7.899,26.716 -30.189,44.979 -54.79,47.661c3.669,6.336 5.965,13.702 6.409,21.639c1.419,25.393 -16.644,47.083 -40.313,48.406c-23.67,1.324 -44.039,-18.218 -45.458,-43.61c-0.008,-0.142 -0.015,-0.285 -0.022,-0.424c-2.274,0.408 -4.597,0.682 -6.96,0.814c-33.747,1.887 -62.789,-25.975 -64.814,-62.18c-2.024,-36.205 23.732,-67.131 57.479,-69.018c13.071,-0.73 25.435,3.001 35.801,9.954Z"/></g><g id="ears"><path id="left" d="M118.837,156.184c16.383,-0.916 30.427,11.64 31.343,28.023c0.916,16.382 -11.641,30.426 -28.024,31.342c-16.382,0.916 -30.426,-11.641 -31.342,-28.023c-0.916,-16.383 11.641,-30.427 28.023,-31.342Z"/><path id="right" d="M390.852,111.2c16.383,-0.916 30.427,11.641 31.343,28.023c0.916,16.383 -11.641,30.427 -28.023,31.342c-16.383,0.916 -30.427,-11.64 -31.343,-28.023c-0.916,-16.382 11.641,-30.426 28.023,-31.342Z"/></g><g id="eyes"><path id="left1" serif:id="left" d="M210.789,155.211c9.502,-0.531 18.071,14.333 19.125,33.173c1.053,18.839 -5.806,34.566 -15.308,35.097c-9.502,0.532 -18.071,-14.333 -19.124,-33.172c-1.053,-18.84 5.806,-34.567 15.307,-35.098Z"/><path id="right1" serif:id="right" d="M296.589,124.077c10.142,-0.567 19.354,16.456 20.558,37.991c1.204,21.536 -6.053,39.48 -16.195,40.047c-10.143,0.567 -19.355,-16.457 -20.559,-37.992c-1.204,-21.535 6.053,-39.479 16.196,-40.046Z"/></g><g id="nose---mouth" serif:id="nose &amp; mouth"><path d="M233.581,235.224c-0.394,-7.044 13.385,-13.552 30.75,-14.523c17.297,-0.967 31.671,3.922 32.172,10.922l0.005,0.083c-5.142,0.294 -10.279,1.053 -15.235,2.473c-1.756,0.503 -3.489,1.091 -5.177,1.792c-1.395,0.58 -2.761,1.237 -4.064,2.004c-0.476,0.28 -0.943,0.576 -1.398,0.888c-0.362,0.249 -0.716,0.509 -1.06,0.781c-0.266,0.211 -0.526,0.43 -0.779,0.657c-0.214,0.193 -0.422,0.391 -0.624,0.597c-1.146,1.168 -2.124,2.611 -2.365,4.262c-0.047,0.327 -0.063,0.656 -0.052,0.986l0.004,0.082c-0.392,-7.016 -14.7,-11.936 -31.974,-11.015l-0.203,0.011Z"/><path d="M265.459,240.886l1.029,18.403" style="fill:none;stroke:#000;stroke-width:3.13px;"/><path d="M246.815,258.9c5.805,2.303 12.232,3.904 19.132,3.911c7.156,-0.786 13.797,-3.184 20.049,-6.102"/></g><g id="fohawk"><path d="M195.816,32.199c0.735,-2.346 1.83,-4.566 3.303,-6.601c9.618,-13.293 31.739,-13.73 49.367,-0.975c17.629,12.754 24.133,33.902 14.515,47.196c-1.473,2.035 -3.238,3.769 -5.237,5.201c4.064,-12.971 -2.887,-29.793 -17.817,-40.595c-14.929,-10.803 -33.081,-12.143 -44.131,-4.226Z"/><path d="M217.641,10.007c1.399,-2.022 3.103,-3.816 5.114,-5.322c13.134,-9.835 34.386,-3.68 47.428,13.737c13.043,17.416 12.97,39.542 -0.164,49.377c-2.01,1.506 -4.211,2.637 -6.546,3.41c7.735,-11.178 6.096,-29.305 -4.95,-44.055c-11.046,-14.751 -27.98,-21.424 -40.882,-17.147Z"/><path d="M181.732,58.791c0.069,-2.457 0.518,-4.891 1.381,-7.25c5.636,-15.41 26.802,-21.852 47.238,-14.378c20.435,7.474 32.45,26.052 26.814,41.462c-0.863,2.359 -2.09,4.508 -3.623,6.43c0.379,-13.587 -10.888,-27.882 -28.195,-34.211c-17.307,-6.33 -35.138,-2.678 -43.615,7.947Z"/></g></g></g><g id="wordmark"><path d="M0,409.551l0,-58l45.139,-0c3.793,-0 7.033,1.356 9.722,4.067c2.688,2.712 4.033,5.941 4.033,9.688l-0,44.245l-13.094,-0l-0,-41.42c-0,-1.848 -0.119,-2.891 -0.358,-3.129c-0.238,-0.238 -1.281,-0.357 -3.128,-0.357l-25.703,-0c-1.848,-0 -2.896,0.119 -3.145,0.357c-0.248,0.238 -0.372,1.281 -0.372,3.129l-0,41.42l-13.094,-0Z" style="fill-rule:nonzero;"/><path d="M69.4,409.551l-0,-58l13.094,-0l-0,58l-13.094,-0Zm-0,-63.838l-0,-13.162l13.094,-0l-0,13.162l-13.094,0Z" style="fill-rule:nonzero;"/><path d="M102.355,409.551c-3.747,-0 -6.976,-1.356 -9.688,-4.067c-2.711,-2.712 -4.067,-5.941 -4.067,-9.688l-0,-30.49c-0,-3.747 1.356,-6.976 4.067,-9.688c2.712,-2.711 5.941,-4.067 9.688,-4.067l45.007,-0l0,13.094l-42.182,-0c-1.848,-0 -2.891,0.119 -3.129,0.357c-0.238,0.238 -0.357,1.281 -0.357,3.129l-0,24.84c-0,1.848 0.119,2.891 0.357,3.129c0.238,0.238 1.281,0.357 3.129,0.357l42.314,0l-0,13.094l-45.139,-0Z" style="fill-rule:nonzero;"/><path d="M158.2,409.551l-0,-45.9c-0,-3.333 1.183,-6.183 3.55,-8.55c2.367,-2.367 5.217,-3.55 8.55,-3.55l32.6,-0l-0,8.2l-32.6,-0c-1.067,-0 -1.983,0.383 -2.75,1.15c-0.767,0.767 -1.15,1.683 -1.15,2.75l-0,45.9l-8.2,-0Z" style="fill-rule:nonzero;"/><path d="M220.9,409.551c-3.333,-0 -6.183,-1.183 -8.55,-3.55c-2.367,-2.367 -3.55,-5.217 -3.55,-8.55l-0,-33.8c-0,-3.333 1.183,-6.183 3.55,-8.55c2.367,-2.367 5.217,-3.55 8.55,-3.55l34.8,-0c3.4,-0 6.283,1.183 8.65,3.55c2.367,2.367 3.55,5.217 3.55,8.55l-0,33.8c-0,3.333 -1.183,6.183 -3.55,8.55c-2.367,2.367 -5.25,3.55 -8.65,3.55l-34.8,-0Zm-0,-8.2l34.8,-0c1.067,-0 1.983,-0.383 2.75,-1.15c0.767,-0.767 1.15,-1.683 1.15,-2.75l-0,-33.8c-0,-1.067 -0.383,-1.983 -1.15,-2.75c-0.767,-0.767 -1.683,-1.15 -2.75,-1.15l-34.8,-0c-1.067,-0 -1.983,0.383 -2.75,1.15c-0.767,0.767 -1.15,1.683 -1.15,2.75l-0,33.8c-0,1.067 0.383,1.983 1.15,2.75c0.767,0.767 1.683,1.15 2.75,1.15Z" style="fill-rule:nonzero;"/><path d="M287.8,432.551l-0,-8.3l36.2,-0c1.067,-0 1.983,-0.383 2.75,-1.15c0.767,-0.767 1.15,-1.683 1.15,-2.75l-0,-10.8l-38.7,-0c-3.333,-0 -6.183,-1.183 -8.55,-3.55c-2.367,-2.367 -3.55,-5.217 -3.55,-8.55l-0,-45.7l8.2,-0l0,45.7c0,1.067 0.383,1.983 1.15,2.75c0.767,0.767 1.683,1.15 2.75,1.15l34.8,-0c1.067,-0 1.983,-0.383 2.75,-1.15c0.767,-0.767 1.15,-1.683 1.15,-2.75l-0,-45.7l8.2,-0l0,68.6c0,3.4 -1.167,6.283 -3.5,8.65c-2.333,2.367 -5.2,3.55 -8.6,3.55l-36.2,-0Z" style="fill-rule:nonzero;"/><path d="M346.8,409.551l-0,-77l8.2,-0l-0,19l38.8,-0c3.333,-0 6.183,1.183 8.55,3.55c2.367,2.367 3.55,5.217 3.55,8.55l-0,33.8c-0,3.333 -1.183,6.183 -3.55,8.55c-2.367,2.367 -5.217,3.55 -8.55,3.55l-47,-0Zm12.2,-8.2l34.8,-0c1.067,-0 1.983,-0.383 2.75,-1.15c0.767,-0.767 1.15,-1.683 1.15,-2.75l-0,-33.8c-0,-1.067 -0.383,-1.983 -1.15,-2.75c-0.767,-0.767 -1.683,-1.15 -2.75,-1.15l-34.8,-0c-1.067,-0 -2,0.383 -2.8,1.15c-0.8,0.767 -1.2,1.683 -1.2,2.75l-0,33.8c-0,1.067 0.4,1.983 1.2,2.75c0.8,0.767 1.733,1.15 2.8,1.15Z" style="fill-rule:nonzero;"/><path d="M425.4,409.551c-3.333,-0 -6.183,-1.183 -8.55,-3.55c-2.367,-2.367 -3.55,-5.217 -3.55,-8.55l-0,-21l50.8,-0l0,-12.8c0,-1.067 -0.383,-1.983 -1.15,-2.75c-0.767,-0.767 -1.683,-1.15 -2.75,-1.15l-46.9,-0l-0,-8.2l46.9,-0c3.4,-0 6.283,1.183 8.65,3.55c2.367,2.367 3.55,5.217 3.55,8.55l-0,45.9l-47,-0Zm-0,-8.2l38.7,-0l0,-16.7l-42.6,-0l-0,12.8c-0,1.067 0.383,1.983 1.15,2.75c0.767,0.767 1.683,1.15 2.75,1.15Z" style="fill-rule:nonzero;"/><path d="M493.8,409.551c-3.333,-0 -6.183,-1.183 -8.55,-3.55c-2.367,-2.367 -3.55,-5.217 -3.55,-8.55l-0,-64.9l8.2,-0l-0,64.9c-0,1.067 0.383,1.983 1.15,2.75c0.767,0.767 1.683,1.15 2.75,1.15l9.8,-0l-0,8.2l-9.8,-0Z" style="fill-rule:nonzero;"/></g></g></svg>