<?xml version="1.0" encoding="UTF-8" standalone="no"?><!DOCTYPE svg PUBLIC "-//W3C//DTD SVG 1.1//EN" "http://www.w3.org/Graphics/SVG/1.1/DTD/svg11.dtd"><svg width="100%" height="100%" viewBox="0 0 504 100" version="1.1" xmlns="http://www.w3.org/2000/svg" xmlns:xlink="http://www.w3.org/1999/xlink" xml:space="preserve" xmlns:serif="http://www.serif.com/" style="fill-rule:evenodd;clip-rule:evenodd;stroke-linejoin:round;stroke-miterlimit:2;"><g id="wordmark"><path d="M0,77l0,-58l45.139,0c3.793,0 7.033,1.356 9.722,4.067c2.688,2.712 4.033,5.941 4.033,9.688l-0,44.245l-13.094,0l-0,-41.42c-0,-1.848 -0.119,-2.891 -0.358,-3.129c-0.238,-0.238 -1.281,-0.357 -3.128,-0.357l-25.703,-0c-1.848,-0 -2.896,0.119 -3.145,0.357c-0.248,0.238 -0.372,1.281 -0.372,3.129l-0,41.42l-13.094,0Z" style="fill:#229ebc;fill-rule:nonzero;"/><path d="M69.4,77l-0,-58l13.094,0l-0,58l-13.094,0Zm-0,-63.837l-0,-13.163l13.094,0l-0,13.163l-13.094,-0Z" style="fill:#229ebc;fill-rule:nonzero;"/><path d="M102.355,77c-3.747,0 -6.976,-1.356 -9.688,-4.067c-2.711,-2.712 -4.067,-5.941 -4.067,-9.688l-0,-30.49c-0,-3.747 1.356,-6.976 4.067,-9.688c2.712,-2.711 5.941,-4.067 9.688,-4.067l45.007,0l0,13.094l-42.182,-0c-1.848,-0 -2.891,0.119 -3.129,0.357c-0.238,0.238 -0.357,1.281 -0.357,3.129l-0,24.84c-0,1.848 0.119,2.891 0.357,3.129c0.238,0.238 1.281,0.357 3.129,0.357l42.314,0l-0,13.094l-45.139,0Z" style="fill:#229ebc;fill-rule:nonzero;"/><path d="M158.2,77l-0,-45.9c-0,-3.333 1.183,-6.183 3.55,-8.55c2.367,-2.367 5.217,-3.55 8.55,-3.55l32.6,0l-0,8.2l-32.6,0c-1.067,0 -1.983,0.383 -2.75,1.15c-0.767,0.767 -1.15,1.683 -1.15,2.75l-0,45.9l-8.2,0Z" style="fill:#ffb706;fill-rule:nonzero;"/><path d="M220.9,77c-3.333,0 -6.183,-1.183 -8.55,-3.55c-2.367,-2.367 -3.55,-5.217 -3.55,-8.55l-0,-33.8c-0,-3.333 1.183,-6.183 3.55,-8.55c2.367,-2.367 5.217,-3.55 8.55,-3.55l34.8,-0c3.4,-0 6.283,1.183 8.65,3.55c2.367,2.367 3.55,5.217 3.55,8.55l-0,33.8c-0,3.333 -1.183,6.183 -3.55,8.55c-2.367,2.367 -5.25,3.55 -8.65,3.55l-34.8,0Zm-0,-8.2l34.8,0c1.067,0 1.983,-0.383 2.75,-1.15c0.767,-0.767 1.15,-1.683 1.15,-2.75l-0,-33.8c-0,-1.067 -0.383,-1.983 -1.15,-2.75c-0.767,-0.767 -1.683,-1.15 -2.75,-1.15l-34.8,0c-1.067,0 -1.983,0.383 -2.75,1.15c-0.767,0.767 -1.15,1.683 -1.15,2.75l-0,33.8c-0,1.067 0.383,1.983 1.15,2.75c0.767,0.767 1.683,1.15 2.75,1.15Z" style="fill:#ffb706;fill-rule:nonzero;"/><path d="M287.8,100l-0,-8.3l36.2,0c1.067,0 1.983,-0.383 2.75,-1.15c0.767,-0.767 1.15,-1.683 1.15,-2.75l-0,-10.8l-38.7,0c-3.333,0 -6.183,-1.183 -8.55,-3.55c-2.367,-2.367 -3.55,-5.217 -3.55,-8.55l-0,-45.7l8.2,-0l0,45.7c0,1.067 0.383,1.983 1.15,2.75c0.767,0.767 1.683,1.15 2.75,1.15l34.8,0c1.067,0 1.983,-0.383 2.75,-1.15c0.767,-0.767 1.15,-1.683 1.15,-2.75l-0,-45.7l8.2,-0l0,68.6c0,3.4 -1.167,6.283 -3.5,8.65c-2.333,2.367 -5.2,3.55 -8.6,3.55l-36.2,0Z" style="fill:#ffb706;fill-rule:nonzero;"/><path d="M346.8,77l-0,-77l8.2,0l-0,19l38.8,0c3.333,0 6.183,1.183 8.55,3.55c2.367,2.367 3.55,5.217 3.55,8.55l-0,33.8c-0,3.333 -1.183,6.183 -3.55,8.55c-2.367,2.367 -5.217,3.55 -8.55,3.55l-47,0Zm12.2,-8.2l34.8,0c1.067,0 1.983,-0.383 2.75,-1.15c0.767,-0.767 1.15,-1.683 1.15,-2.75l-0,-33.8c-0,-1.067 -0.383,-1.983 -1.15,-2.75c-0.767,-0.767 -1.683,-1.15 -2.75,-1.15l-34.8,0c-1.067,0 -2,0.383 -2.8,1.15c-0.8,0.767 -1.2,1.683 -1.2,2.75l-0,33.8c-0,1.067 0.4,1.983 1.2,2.75c0.8,0.767 1.733,1.15 2.8,1.15Z" style="fill:#ffb706;fill-rule:nonzero;"/><path d="M425.4,77c-3.333,0 -6.183,-1.183 -8.55,-3.55c-2.367,-2.367 -3.55,-5.217 -3.55,-8.55l-0,-21l50.8,0l0,-12.8c0,-1.067 -0.383,-1.983 -1.15,-2.75c-0.767,-0.767 -1.683,-1.15 -2.75,-1.15l-46.9,0l-0,-8.2l46.9,-0c3.4,-0 6.283,1.183 8.65,3.55c2.367,2.367 3.55,5.217 3.55,8.55l-0,45.9l-47,0Zm-0,-8.2l38.7,0l0,-16.7l-42.6,-0l-0,12.8c-0,1.067 0.383,1.983 1.15,2.75c0.767,0.767 1.683,1.15 2.75,1.15Z" style="fill:#ffb706;fill-rule:nonzero;"/><path d="M493.8,77c-3.333,0 -6.183,-1.183 -8.55,-3.55c-2.367,-2.367 -3.55,-5.217 -3.55,-8.55l-0,-64.9l8.2,0l-0,64.9c-0,1.067 0.383,1.983 1.15,2.75c0.767,0.767 1.683,1.15 2.75,1.15l9.8,0l-0,8.2l-9.8,-0Z" style="fill:#ffb706;fill-rule:nonzero;"/></g></svg>